G04 #@! TF.FileFunction,Soldermask,Bot*
%FSLAX46Y46*%
G04 Gerber Fmt 4.6, Leading zero omitted, Abs format (unit mm)*
G04 Created by KiCad (PCBNEW 4.0.7) date 09/17/17 22:01:51*
%MOMM*%
%LPD*%
G01*
G04 APERTURE LIST*
%ADD10C,0.100000*%
%ADD11R,2.400000X2.100000*%
%ADD12C,2.178000*%
%ADD13O,4.400000X1.900000*%
%ADD14C,0.254000*%
G04 APERTURE END LIST*
D10*
D11*
X63733680Y-52550060D03*
X59733680Y-52550060D03*
D12*
X52303680Y-39850060D03*
X54843680Y-39850060D03*
X67543680Y-39850060D03*
X70083680Y-39850060D03*
X52303680Y-57630060D03*
X54843680Y-57630060D03*
X57383680Y-57630060D03*
X59923680Y-57630060D03*
X62463680Y-57630060D03*
X65003680Y-57630060D03*
X67543680Y-57630060D03*
X70083680Y-57630060D03*
D13*
X55224680Y-44803060D03*
X55224680Y-47343060D03*
X67035680Y-44803060D03*
X67035680Y-47343060D03*
D14*
G36*
X61625718Y-38705858D02*
X62034834Y-38850251D01*
X62350672Y-38996023D01*
X62640559Y-39189281D01*
X63004106Y-39504354D01*
X63244998Y-39841603D01*
X63511630Y-40326389D01*
X63631071Y-40899705D01*
X63582927Y-41525571D01*
X63411533Y-42015269D01*
X63265491Y-42380372D01*
X63053041Y-42687245D01*
X62741140Y-42975154D01*
X62326067Y-43243731D01*
X62013990Y-43387766D01*
X61650852Y-43484603D01*
X61315374Y-43532528D01*
X60907288Y-43508523D01*
X60493093Y-43411065D01*
X60154756Y-43290231D01*
X59819672Y-43098754D01*
X59456281Y-42783815D01*
X59238502Y-42517642D01*
X59046088Y-42229019D01*
X58901796Y-41868291D01*
X58780680Y-41383826D01*
X58780680Y-40951732D01*
X58853283Y-40467712D01*
X58998239Y-40105322D01*
X59143571Y-39814657D01*
X59333091Y-39554068D01*
X59625358Y-39286156D01*
X59745838Y-39189772D01*
X59988845Y-39019668D01*
X60278741Y-38874719D01*
X60539541Y-38779883D01*
X60856650Y-38731097D01*
X61199196Y-38682162D01*
X61625718Y-38705858D01*
X61625718Y-38705858D01*
G37*
X61625718Y-38705858D02*
X62034834Y-38850251D01*
X62350672Y-38996023D01*
X62640559Y-39189281D01*
X63004106Y-39504354D01*
X63244998Y-39841603D01*
X63511630Y-40326389D01*
X63631071Y-40899705D01*
X63582927Y-41525571D01*
X63411533Y-42015269D01*
X63265491Y-42380372D01*
X63053041Y-42687245D01*
X62741140Y-42975154D01*
X62326067Y-43243731D01*
X62013990Y-43387766D01*
X61650852Y-43484603D01*
X61315374Y-43532528D01*
X60907288Y-43508523D01*
X60493093Y-43411065D01*
X60154756Y-43290231D01*
X59819672Y-43098754D01*
X59456281Y-42783815D01*
X59238502Y-42517642D01*
X59046088Y-42229019D01*
X58901796Y-41868291D01*
X58780680Y-41383826D01*
X58780680Y-40951732D01*
X58853283Y-40467712D01*
X58998239Y-40105322D01*
X59143571Y-39814657D01*
X59333091Y-39554068D01*
X59625358Y-39286156D01*
X59745838Y-39189772D01*
X59988845Y-39019668D01*
X60278741Y-38874719D01*
X60539541Y-38779883D01*
X60856650Y-38731097D01*
X61199196Y-38682162D01*
X61625718Y-38705858D01*
M02*
