G04 #@! TF.FileFunction,Copper,L1,Top,Signal*
%FSLAX46Y46*%
G04 Gerber Fmt 4.6, Leading zero omitted, Abs format (unit mm)*
G04 Created by KiCad (PCBNEW 4.0.7) date 09/17/17 22:01:51*
%MOMM*%
%LPD*%
G01*
G04 APERTURE LIST*
%ADD10C,0.100000*%
%ADD11C,1.778000*%
%ADD12C,0.025400*%
%ADD13C,0.254000*%
G04 APERTURE END LIST*
D10*
D11*
X52303680Y-39850060D03*
X54843680Y-39850060D03*
X67543680Y-39850060D03*
X70083680Y-39850060D03*
X52303680Y-57630060D03*
X54843680Y-57630060D03*
X57383680Y-57630060D03*
X59923680Y-57630060D03*
X62463680Y-57630060D03*
X65003680Y-57630060D03*
X67543680Y-57630060D03*
X70083680Y-57630060D03*
D12*
X55433370Y-42220396D02*
X55433370Y-42220396D01*
X55370716Y-42271196D02*
X55441391Y-42271196D01*
X55308063Y-42321996D02*
X55449412Y-42321996D01*
X55245410Y-42372796D02*
X55457433Y-42372796D01*
X55182756Y-42423596D02*
X55476749Y-42423596D01*
X55120103Y-42474396D02*
X55502149Y-42474396D01*
X55059758Y-42525196D02*
X55527549Y-42525196D01*
X55003313Y-42575996D02*
X55553556Y-42575996D01*
X54954804Y-42626796D02*
X55590245Y-42626796D01*
X54909504Y-42677596D02*
X55626934Y-42677596D01*
X54864553Y-42728396D02*
X55663622Y-42728396D01*
X54826453Y-42779196D02*
X55705229Y-42779196D01*
X54788353Y-42829996D02*
X55752122Y-42829996D01*
X54755327Y-42880796D02*
X55799014Y-42880796D01*
X54731881Y-42931596D02*
X55864561Y-42931596D01*
X54708435Y-42982396D02*
X55932294Y-42982396D01*
X54690354Y-43033196D02*
X56006974Y-43033196D01*
X54673421Y-43083996D02*
X56088254Y-43083996D01*
X54656488Y-43134796D02*
X56076384Y-43134796D01*
X54641070Y-43185596D02*
X56025584Y-43185596D01*
X54629118Y-43236396D02*
X55989829Y-43236396D01*
X54617165Y-43287196D02*
X55959349Y-43287196D01*
X54605212Y-43337996D02*
X55928869Y-43337996D01*
X54600879Y-43388796D02*
X55898389Y-43388796D01*
X54596645Y-43439596D02*
X55867909Y-43439596D01*
X54595180Y-43490396D02*
X55837429Y-43490396D01*
X54595180Y-43541196D02*
X55799893Y-43541196D01*
X54596309Y-43591996D02*
X55760815Y-43591996D01*
X54599937Y-43642796D02*
X55721738Y-43642796D01*
X54603566Y-43693596D02*
X55682661Y-43693596D01*
X54610431Y-43744396D02*
X55643584Y-43744396D01*
X54619668Y-43795196D02*
X55602527Y-43795196D01*
X54633295Y-43845996D02*
X55560692Y-43845996D01*
X54652344Y-43896796D02*
X55518857Y-43896796D01*
X54681852Y-43947596D02*
X55471755Y-43947596D01*
X54712435Y-43998396D02*
X55416336Y-43998396D01*
X54774524Y-44049196D02*
X55355049Y-44049196D01*
X54840380Y-44099996D02*
X55276027Y-44099996D01*
X54944547Y-44150796D02*
X55142378Y-44150796D01*
X55459935Y-42388641D02*
X55461121Y-42392340D01*
X55551121Y-42572340D01*
X55552184Y-42574096D01*
X55682184Y-42754096D01*
X55683148Y-42755274D01*
X55803148Y-42885274D01*
X55804860Y-42886820D01*
X55964860Y-43006820D01*
X55965749Y-43007430D01*
X56112211Y-43098969D01*
X56013500Y-43197680D01*
X56011590Y-43200126D01*
X55831966Y-43499500D01*
X55632552Y-43758737D01*
X55493243Y-43927898D01*
X55374698Y-44036564D01*
X55237256Y-44124920D01*
X55130215Y-44154113D01*
X55022955Y-44163864D01*
X54907257Y-44144581D01*
X54820038Y-44086435D01*
X54712233Y-43998231D01*
X54653964Y-43901117D01*
X54624772Y-43823269D01*
X54605099Y-43715071D01*
X54595180Y-43576203D01*
X54595180Y-43457187D01*
X54605058Y-43338651D01*
X54644710Y-43170130D01*
X54704305Y-42991345D01*
X54763447Y-42863204D01*
X54882100Y-42705000D01*
X54921460Y-42665640D01*
X54922123Y-42664925D01*
X54981588Y-42595549D01*
X55080738Y-42506314D01*
X55433370Y-42220396D01*
X55459935Y-42388641D01*
X67114101Y-42596241D02*
X67114101Y-42596241D01*
X67077814Y-42647041D02*
X67176411Y-42647041D01*
X67035337Y-42697841D02*
X67245577Y-42697841D01*
X66988459Y-42748641D02*
X67293704Y-42748641D01*
X66937659Y-42799441D02*
X67341831Y-42799441D01*
X66881959Y-42850241D02*
X67389957Y-42850241D01*
X66818804Y-42901041D02*
X67436474Y-42901041D01*
X66742604Y-42951841D02*
X67479459Y-42951841D01*
X66648916Y-43002641D02*
X67522443Y-43002641D01*
X66547316Y-43053441D02*
X67560288Y-43053441D01*
X66399897Y-43104241D02*
X67596574Y-43104241D01*
X66303545Y-43155041D02*
X67632835Y-43155041D01*
X66123751Y-43205841D02*
X67668004Y-43205841D01*
X66093428Y-43256641D02*
X67703173Y-43256641D01*
X66106767Y-43307441D02*
X67734405Y-43307441D01*
X66120622Y-43358241D02*
X67761300Y-43358241D01*
X66135906Y-43409041D02*
X67788194Y-43409041D01*
X66151781Y-43459841D02*
X67814871Y-43459841D01*
X66167655Y-43510641D02*
X67840271Y-43510641D01*
X66185337Y-43561441D02*
X67865671Y-43561441D01*
X66204392Y-43612241D02*
X67888130Y-43612241D01*
X66224712Y-43663041D02*
X67906273Y-43663041D01*
X66245032Y-43713841D02*
X67924415Y-43713841D01*
X66265352Y-43764641D02*
X67937909Y-43764641D01*
X66285672Y-43815441D02*
X67949198Y-43815441D01*
X66306241Y-43866241D02*
X67960487Y-43866241D01*
X66329332Y-43917041D02*
X67972238Y-43917041D01*
X66352423Y-43967841D02*
X67986752Y-43967841D01*
X66375514Y-44018641D02*
X68001266Y-44018641D01*
X66398605Y-44069441D02*
X68011179Y-44069441D01*
X66424327Y-44120241D02*
X68014354Y-44120241D01*
X66450831Y-44171041D02*
X68017529Y-44171041D01*
X66477335Y-44221841D02*
X68018918Y-44221841D01*
X66503840Y-44272641D02*
X68016096Y-44272641D01*
X66532475Y-44323441D02*
X68013274Y-44323441D01*
X66567111Y-44374241D02*
X68010452Y-44374241D01*
X66601748Y-44425041D02*
X68002363Y-44425041D01*
X66636384Y-44475841D02*
X67992838Y-44475841D01*
X66671021Y-44526641D02*
X67983313Y-44526641D01*
X66714772Y-44577441D02*
X67970478Y-44577441D01*
X66758946Y-44628241D02*
X67955964Y-44628241D01*
X66803120Y-44679041D02*
X67941449Y-44679041D01*
X66847293Y-44729841D02*
X67923573Y-44729841D01*
X66903531Y-44780641D02*
X67905431Y-44780641D01*
X66973870Y-44831441D02*
X67884385Y-44831441D01*
X67044208Y-44882241D02*
X67852057Y-44882241D01*
X67138872Y-44933041D02*
X67818139Y-44933041D01*
X67235392Y-44983841D02*
X67767339Y-44983841D01*
X67386584Y-45034641D02*
X67673360Y-45034641D01*
X67133500Y-42615640D02*
X67135010Y-42616931D01*
X67244065Y-42696244D01*
X67423020Y-42885140D01*
X67532448Y-43014464D01*
X67632079Y-43153948D01*
X67721610Y-43283271D01*
X67811184Y-43452466D01*
X67880779Y-43591656D01*
X67930252Y-43730182D01*
X67970082Y-43909415D01*
X67970269Y-43910149D01*
X68009891Y-44048825D01*
X68019758Y-44206706D01*
X68009846Y-44385132D01*
X67980107Y-44543737D01*
X67940382Y-44682775D01*
X67891001Y-44821043D01*
X67822512Y-44928668D01*
X67735730Y-45015450D01*
X67610572Y-45053960D01*
X67444540Y-45053960D01*
X67237478Y-44984939D01*
X67049194Y-44885842D01*
X66871099Y-44757218D01*
X66672555Y-44528892D01*
X66523398Y-44310129D01*
X66403897Y-44081085D01*
X66304165Y-43861676D01*
X66204308Y-43612033D01*
X66174499Y-43532542D01*
X66124676Y-43373107D01*
X66094845Y-43263728D01*
X66085361Y-43216311D01*
X66295822Y-43158913D01*
X66298648Y-43157762D01*
X66387619Y-43108334D01*
X66536496Y-43058708D01*
X66538160Y-43058019D01*
X66718160Y-42968019D01*
X66719525Y-42967227D01*
X66839525Y-42887227D01*
X66840843Y-42886218D01*
X66920843Y-42816218D01*
X66921460Y-42815640D01*
X67011460Y-42725640D01*
X67012123Y-42724925D01*
X67072123Y-42654925D01*
X67072814Y-42654042D01*
X67114101Y-42596241D01*
X67133500Y-42615640D01*
D13*
G36*
X64409648Y-43143898D02*
X64424146Y-43151436D01*
X64574006Y-43217476D01*
X64580627Y-43220174D01*
X64743187Y-43281134D01*
X64755908Y-43285156D01*
X64961648Y-43338496D01*
X64971195Y-43340582D01*
X65113435Y-43365982D01*
X65118209Y-43366741D01*
X65227429Y-43381981D01*
X65236341Y-43382906D01*
X65312050Y-43388068D01*
X65359702Y-43544638D01*
X65359816Y-43545009D01*
X65440300Y-43806581D01*
X65540561Y-44190082D01*
X65598398Y-44454120D01*
X65666288Y-44770937D01*
X65703696Y-44995388D01*
X65763971Y-45409778D01*
X65793847Y-45738414D01*
X65801311Y-45927496D01*
X65811364Y-46274336D01*
X65806396Y-46532699D01*
X65783960Y-46891667D01*
X65746414Y-47187031D01*
X65719112Y-47395518D01*
X65642101Y-47765667D01*
X65575317Y-48013014D01*
X65455280Y-48383129D01*
X65346194Y-48673200D01*
X65161597Y-49072328D01*
X65001614Y-49375066D01*
X64731932Y-49764879D01*
X64459435Y-50054559D01*
X64070306Y-50416250D01*
X63752119Y-50664834D01*
X63320375Y-50966805D01*
X63006171Y-51144937D01*
X62382658Y-51452937D01*
X62125401Y-51549408D01*
X61910203Y-51626088D01*
X61680966Y-51687711D01*
X61395165Y-51754233D01*
X61270869Y-51769149D01*
X61255076Y-51242718D01*
X61322335Y-51225127D01*
X61331743Y-51222273D01*
X61529863Y-51153693D01*
X61546986Y-51146318D01*
X61790826Y-51019318D01*
X61797067Y-51015841D01*
X61985027Y-50904081D01*
X61996680Y-50896249D01*
X62109144Y-50811276D01*
X62234250Y-50723702D01*
X62242723Y-50717224D01*
X62318923Y-50653724D01*
X62342640Y-50627573D01*
X62385820Y-50564073D01*
X62400670Y-50534615D01*
X62418450Y-50483815D01*
X62424599Y-50457612D01*
X62432219Y-50396652D01*
X62432477Y-50367370D01*
X62424857Y-50296250D01*
X62414469Y-50257830D01*
X62381449Y-50184170D01*
X62364270Y-50156212D01*
X62321090Y-50102872D01*
X62298580Y-50081180D01*
X62237620Y-50035460D01*
X62197913Y-50015416D01*
X62121713Y-49992556D01*
X62108983Y-49989443D01*
X62055643Y-49979283D01*
X62010422Y-49978866D01*
X61921522Y-49994106D01*
X61873381Y-50013049D01*
X61799721Y-50061309D01*
X61792272Y-50066581D01*
X61695752Y-50140241D01*
X61694830Y-50140952D01*
X61563726Y-50242922D01*
X61430659Y-50322762D01*
X61317978Y-50389891D01*
X61191147Y-50446512D01*
X61052723Y-50485089D01*
X60904006Y-50507622D01*
X60755553Y-50503319D01*
X60570806Y-50452124D01*
X60389906Y-50363993D01*
X60184901Y-50232204D01*
X60002751Y-50104949D01*
X59880219Y-50014926D01*
X59786957Y-49944349D01*
X59748564Y-49924515D01*
X59700304Y-49909275D01*
X59684778Y-49905429D01*
X59628898Y-49895269D01*
X59600663Y-49893340D01*
X59542243Y-49895880D01*
X59504040Y-49903523D01*
X59427840Y-49931463D01*
X59399270Y-49946282D01*
X59333230Y-49992002D01*
X59306350Y-50017084D01*
X59255550Y-50080584D01*
X59233762Y-50121213D01*
X59213442Y-50184713D01*
X59207954Y-50211566D01*
X59200334Y-50292846D01*
X59204255Y-50338116D01*
X59227115Y-50421936D01*
X59234450Y-50442001D01*
X59267470Y-50513121D01*
X59302438Y-50558095D01*
X59371018Y-50613975D01*
X59374603Y-50616791D01*
X59468583Y-50687911D01*
X59469020Y-50688240D01*
X59601100Y-50787300D01*
X59605278Y-50790303D01*
X59760218Y-50896983D01*
X59764786Y-50899985D01*
X59934966Y-51006665D01*
X59940157Y-51009750D01*
X60102717Y-51101190D01*
X60112563Y-51106178D01*
X60275123Y-51179838D01*
X60290649Y-51185684D01*
X60432889Y-51228864D01*
X60434890Y-51229454D01*
X60469802Y-51239429D01*
X60483423Y-51743407D01*
X60460908Y-51739547D01*
X60151269Y-51672665D01*
X59828552Y-51574125D01*
X59529510Y-51455498D01*
X59188501Y-51296194D01*
X58939517Y-51160609D01*
X58603203Y-50943873D01*
X58375070Y-50780212D01*
X58116884Y-50571678D01*
X57900439Y-50372648D01*
X57618989Y-50096135D01*
X57333372Y-49719417D01*
X57118400Y-49375955D01*
X56904993Y-48956586D01*
X56731345Y-48527426D01*
X56594648Y-48080055D01*
X56517473Y-47738992D01*
X56457657Y-47419973D01*
X56420520Y-47122872D01*
X56403155Y-46850002D01*
X56395620Y-46493342D01*
X56395620Y-46410203D01*
X57331985Y-46410203D01*
X57590614Y-47036132D01*
X58069089Y-47515443D01*
X58694566Y-47775164D01*
X59371823Y-47775755D01*
X59997752Y-47517126D01*
X60477063Y-47038651D01*
X60736784Y-46413174D01*
X60736786Y-46410203D01*
X61522985Y-46410203D01*
X61781614Y-47036132D01*
X62260089Y-47515443D01*
X62885566Y-47775164D01*
X63562823Y-47775755D01*
X64188752Y-47517126D01*
X64668063Y-47038651D01*
X64927784Y-46413174D01*
X64928375Y-45735917D01*
X64669746Y-45109988D01*
X64191271Y-44630677D01*
X63565794Y-44370956D01*
X62888537Y-44370365D01*
X62262608Y-44628994D01*
X61783297Y-45107469D01*
X61523576Y-45732946D01*
X61522985Y-46410203D01*
X60736786Y-46410203D01*
X60737375Y-45735917D01*
X60478746Y-45109988D01*
X60000271Y-44630677D01*
X59374794Y-44370956D01*
X58697537Y-44370365D01*
X58071608Y-44628994D01*
X57592297Y-45107469D01*
X57332576Y-45732946D01*
X57331985Y-46410203D01*
X56395620Y-46410203D01*
X56395620Y-46090651D01*
X56408154Y-45752238D01*
X56443274Y-45255541D01*
X56488435Y-44924359D01*
X56488515Y-44923768D01*
X56538791Y-44541668D01*
X56595486Y-44253265D01*
X56662536Y-44012381D01*
X56758819Y-43682992D01*
X56759480Y-43680648D01*
X56814331Y-43478697D01*
X56824273Y-43449393D01*
X56840482Y-43452311D01*
X56842915Y-43452725D01*
X56969915Y-43473045D01*
X56980240Y-43474266D01*
X57077998Y-43481786D01*
X57180848Y-43491820D01*
X57189839Y-43492376D01*
X57286359Y-43494916D01*
X57286445Y-43494918D01*
X57385505Y-43497458D01*
X57392191Y-43497454D01*
X57484469Y-43494960D01*
X57484479Y-43494960D01*
X57515005Y-43520790D01*
X57518015Y-43523259D01*
X57716135Y-43680739D01*
X57728471Y-43689402D01*
X57847851Y-43763062D01*
X57850148Y-43764446D01*
X57936508Y-43815246D01*
X57937890Y-43816047D01*
X58044570Y-43877007D01*
X58051800Y-43880835D01*
X58166100Y-43936715D01*
X58178479Y-43941974D01*
X58290239Y-43982614D01*
X58292660Y-43983467D01*
X58404420Y-44021567D01*
X58409209Y-44023094D01*
X58503189Y-44051034D01*
X58505243Y-44051626D01*
X58614463Y-44082106D01*
X58628194Y-44085130D01*
X58737414Y-44102910D01*
X58746526Y-44104057D01*
X58888766Y-44116757D01*
X58891421Y-44116966D01*
X59003181Y-44124586D01*
X59015915Y-44124814D01*
X59173395Y-44119734D01*
X59181692Y-44119194D01*
X59311232Y-44106494D01*
X59321338Y-44105091D01*
X59448338Y-44082231D01*
X59453390Y-44081216D01*
X59590550Y-44050736D01*
X59603161Y-44047243D01*
X59732701Y-44004063D01*
X59738130Y-44002115D01*
X59837190Y-43964015D01*
X59844820Y-43960791D01*
X59895373Y-43937459D01*
X59898789Y-43938760D01*
X59899407Y-43938994D01*
X60061967Y-43999954D01*
X60073474Y-44003654D01*
X60233494Y-44046834D01*
X60237862Y-44047930D01*
X60380102Y-44080950D01*
X60387941Y-44082512D01*
X60540341Y-44107912D01*
X60554982Y-44109487D01*
X60708541Y-44117039D01*
X60813792Y-44124557D01*
X60827143Y-44124807D01*
X60977003Y-44119727D01*
X60984198Y-44119278D01*
X61123898Y-44106578D01*
X61138131Y-44104466D01*
X61285451Y-44073986D01*
X61292532Y-44072308D01*
X61510972Y-44013888D01*
X61526878Y-44008484D01*
X61691978Y-43939904D01*
X61702931Y-43934729D01*
X61860411Y-43850909D01*
X61870241Y-43845095D01*
X62002321Y-43758735D01*
X62006449Y-43755918D01*
X62138529Y-43661938D01*
X62150627Y-43652161D01*
X62216015Y-43592338D01*
X62235102Y-43598337D01*
X62253574Y-43602658D01*
X62416134Y-43628058D01*
X62417525Y-43628267D01*
X62592785Y-43653667D01*
X62600306Y-43654529D01*
X62780646Y-43669769D01*
X62791340Y-43670220D01*
X62976760Y-43670220D01*
X62981579Y-43670129D01*
X63182239Y-43662509D01*
X63194891Y-43661393D01*
X63377771Y-43635993D01*
X63384148Y-43634941D01*
X63556868Y-43601921D01*
X63568855Y-43599019D01*
X63741575Y-43548219D01*
X63754189Y-43543775D01*
X63914209Y-43477735D01*
X63923605Y-43473402D01*
X64032825Y-43417522D01*
X64042709Y-43411893D01*
X64159549Y-43338233D01*
X64171418Y-43329760D01*
X64288258Y-43235780D01*
X64295077Y-43229885D01*
X64366197Y-43163845D01*
X64376546Y-43153031D01*
X64392911Y-43133778D01*
X64409648Y-43143898D01*
X64409648Y-43143898D01*
G37*
X64409648Y-43143898D02*
X64424146Y-43151436D01*
X64574006Y-43217476D01*
X64580627Y-43220174D01*
X64743187Y-43281134D01*
X64755908Y-43285156D01*
X64961648Y-43338496D01*
X64971195Y-43340582D01*
X65113435Y-43365982D01*
X65118209Y-43366741D01*
X65227429Y-43381981D01*
X65236341Y-43382906D01*
X65312050Y-43388068D01*
X65359702Y-43544638D01*
X65359816Y-43545009D01*
X65440300Y-43806581D01*
X65540561Y-44190082D01*
X65598398Y-44454120D01*
X65666288Y-44770937D01*
X65703696Y-44995388D01*
X65763971Y-45409778D01*
X65793847Y-45738414D01*
X65801311Y-45927496D01*
X65811364Y-46274336D01*
X65806396Y-46532699D01*
X65783960Y-46891667D01*
X65746414Y-47187031D01*
X65719112Y-47395518D01*
X65642101Y-47765667D01*
X65575317Y-48013014D01*
X65455280Y-48383129D01*
X65346194Y-48673200D01*
X65161597Y-49072328D01*
X65001614Y-49375066D01*
X64731932Y-49764879D01*
X64459435Y-50054559D01*
X64070306Y-50416250D01*
X63752119Y-50664834D01*
X63320375Y-50966805D01*
X63006171Y-51144937D01*
X62382658Y-51452937D01*
X62125401Y-51549408D01*
X61910203Y-51626088D01*
X61680966Y-51687711D01*
X61395165Y-51754233D01*
X61270869Y-51769149D01*
X61255076Y-51242718D01*
X61322335Y-51225127D01*
X61331743Y-51222273D01*
X61529863Y-51153693D01*
X61546986Y-51146318D01*
X61790826Y-51019318D01*
X61797067Y-51015841D01*
X61985027Y-50904081D01*
X61996680Y-50896249D01*
X62109144Y-50811276D01*
X62234250Y-50723702D01*
X62242723Y-50717224D01*
X62318923Y-50653724D01*
X62342640Y-50627573D01*
X62385820Y-50564073D01*
X62400670Y-50534615D01*
X62418450Y-50483815D01*
X62424599Y-50457612D01*
X62432219Y-50396652D01*
X62432477Y-50367370D01*
X62424857Y-50296250D01*
X62414469Y-50257830D01*
X62381449Y-50184170D01*
X62364270Y-50156212D01*
X62321090Y-50102872D01*
X62298580Y-50081180D01*
X62237620Y-50035460D01*
X62197913Y-50015416D01*
X62121713Y-49992556D01*
X62108983Y-49989443D01*
X62055643Y-49979283D01*
X62010422Y-49978866D01*
X61921522Y-49994106D01*
X61873381Y-50013049D01*
X61799721Y-50061309D01*
X61792272Y-50066581D01*
X61695752Y-50140241D01*
X61694830Y-50140952D01*
X61563726Y-50242922D01*
X61430659Y-50322762D01*
X61317978Y-50389891D01*
X61191147Y-50446512D01*
X61052723Y-50485089D01*
X60904006Y-50507622D01*
X60755553Y-50503319D01*
X60570806Y-50452124D01*
X60389906Y-50363993D01*
X60184901Y-50232204D01*
X60002751Y-50104949D01*
X59880219Y-50014926D01*
X59786957Y-49944349D01*
X59748564Y-49924515D01*
X59700304Y-49909275D01*
X59684778Y-49905429D01*
X59628898Y-49895269D01*
X59600663Y-49893340D01*
X59542243Y-49895880D01*
X59504040Y-49903523D01*
X59427840Y-49931463D01*
X59399270Y-49946282D01*
X59333230Y-49992002D01*
X59306350Y-50017084D01*
X59255550Y-50080584D01*
X59233762Y-50121213D01*
X59213442Y-50184713D01*
X59207954Y-50211566D01*
X59200334Y-50292846D01*
X59204255Y-50338116D01*
X59227115Y-50421936D01*
X59234450Y-50442001D01*
X59267470Y-50513121D01*
X59302438Y-50558095D01*
X59371018Y-50613975D01*
X59374603Y-50616791D01*
X59468583Y-50687911D01*
X59469020Y-50688240D01*
X59601100Y-50787300D01*
X59605278Y-50790303D01*
X59760218Y-50896983D01*
X59764786Y-50899985D01*
X59934966Y-51006665D01*
X59940157Y-51009750D01*
X60102717Y-51101190D01*
X60112563Y-51106178D01*
X60275123Y-51179838D01*
X60290649Y-51185684D01*
X60432889Y-51228864D01*
X60434890Y-51229454D01*
X60469802Y-51239429D01*
X60483423Y-51743407D01*
X60460908Y-51739547D01*
X60151269Y-51672665D01*
X59828552Y-51574125D01*
X59529510Y-51455498D01*
X59188501Y-51296194D01*
X58939517Y-51160609D01*
X58603203Y-50943873D01*
X58375070Y-50780212D01*
X58116884Y-50571678D01*
X57900439Y-50372648D01*
X57618989Y-50096135D01*
X57333372Y-49719417D01*
X57118400Y-49375955D01*
X56904993Y-48956586D01*
X56731345Y-48527426D01*
X56594648Y-48080055D01*
X56517473Y-47738992D01*
X56457657Y-47419973D01*
X56420520Y-47122872D01*
X56403155Y-46850002D01*
X56395620Y-46493342D01*
X56395620Y-46410203D01*
X57331985Y-46410203D01*
X57590614Y-47036132D01*
X58069089Y-47515443D01*
X58694566Y-47775164D01*
X59371823Y-47775755D01*
X59997752Y-47517126D01*
X60477063Y-47038651D01*
X60736784Y-46413174D01*
X60736786Y-46410203D01*
X61522985Y-46410203D01*
X61781614Y-47036132D01*
X62260089Y-47515443D01*
X62885566Y-47775164D01*
X63562823Y-47775755D01*
X64188752Y-47517126D01*
X64668063Y-47038651D01*
X64927784Y-46413174D01*
X64928375Y-45735917D01*
X64669746Y-45109988D01*
X64191271Y-44630677D01*
X63565794Y-44370956D01*
X62888537Y-44370365D01*
X62262608Y-44628994D01*
X61783297Y-45107469D01*
X61523576Y-45732946D01*
X61522985Y-46410203D01*
X60736786Y-46410203D01*
X60737375Y-45735917D01*
X60478746Y-45109988D01*
X60000271Y-44630677D01*
X59374794Y-44370956D01*
X58697537Y-44370365D01*
X58071608Y-44628994D01*
X57592297Y-45107469D01*
X57332576Y-45732946D01*
X57331985Y-46410203D01*
X56395620Y-46410203D01*
X56395620Y-46090651D01*
X56408154Y-45752238D01*
X56443274Y-45255541D01*
X56488435Y-44924359D01*
X56488515Y-44923768D01*
X56538791Y-44541668D01*
X56595486Y-44253265D01*
X56662536Y-44012381D01*
X56758819Y-43682992D01*
X56759480Y-43680648D01*
X56814331Y-43478697D01*
X56824273Y-43449393D01*
X56840482Y-43452311D01*
X56842915Y-43452725D01*
X56969915Y-43473045D01*
X56980240Y-43474266D01*
X57077998Y-43481786D01*
X57180848Y-43491820D01*
X57189839Y-43492376D01*
X57286359Y-43494916D01*
X57286445Y-43494918D01*
X57385505Y-43497458D01*
X57392191Y-43497454D01*
X57484469Y-43494960D01*
X57484479Y-43494960D01*
X57515005Y-43520790D01*
X57518015Y-43523259D01*
X57716135Y-43680739D01*
X57728471Y-43689402D01*
X57847851Y-43763062D01*
X57850148Y-43764446D01*
X57936508Y-43815246D01*
X57937890Y-43816047D01*
X58044570Y-43877007D01*
X58051800Y-43880835D01*
X58166100Y-43936715D01*
X58178479Y-43941974D01*
X58290239Y-43982614D01*
X58292660Y-43983467D01*
X58404420Y-44021567D01*
X58409209Y-44023094D01*
X58503189Y-44051034D01*
X58505243Y-44051626D01*
X58614463Y-44082106D01*
X58628194Y-44085130D01*
X58737414Y-44102910D01*
X58746526Y-44104057D01*
X58888766Y-44116757D01*
X58891421Y-44116966D01*
X59003181Y-44124586D01*
X59015915Y-44124814D01*
X59173395Y-44119734D01*
X59181692Y-44119194D01*
X59311232Y-44106494D01*
X59321338Y-44105091D01*
X59448338Y-44082231D01*
X59453390Y-44081216D01*
X59590550Y-44050736D01*
X59603161Y-44047243D01*
X59732701Y-44004063D01*
X59738130Y-44002115D01*
X59837190Y-43964015D01*
X59844820Y-43960791D01*
X59895373Y-43937459D01*
X59898789Y-43938760D01*
X59899407Y-43938994D01*
X60061967Y-43999954D01*
X60073474Y-44003654D01*
X60233494Y-44046834D01*
X60237862Y-44047930D01*
X60380102Y-44080950D01*
X60387941Y-44082512D01*
X60540341Y-44107912D01*
X60554982Y-44109487D01*
X60708541Y-44117039D01*
X60813792Y-44124557D01*
X60827143Y-44124807D01*
X60977003Y-44119727D01*
X60984198Y-44119278D01*
X61123898Y-44106578D01*
X61138131Y-44104466D01*
X61285451Y-44073986D01*
X61292532Y-44072308D01*
X61510972Y-44013888D01*
X61526878Y-44008484D01*
X61691978Y-43939904D01*
X61702931Y-43934729D01*
X61860411Y-43850909D01*
X61870241Y-43845095D01*
X62002321Y-43758735D01*
X62006449Y-43755918D01*
X62138529Y-43661938D01*
X62150627Y-43652161D01*
X62216015Y-43592338D01*
X62235102Y-43598337D01*
X62253574Y-43602658D01*
X62416134Y-43628058D01*
X62417525Y-43628267D01*
X62592785Y-43653667D01*
X62600306Y-43654529D01*
X62780646Y-43669769D01*
X62791340Y-43670220D01*
X62976760Y-43670220D01*
X62981579Y-43670129D01*
X63182239Y-43662509D01*
X63194891Y-43661393D01*
X63377771Y-43635993D01*
X63384148Y-43634941D01*
X63556868Y-43601921D01*
X63568855Y-43599019D01*
X63741575Y-43548219D01*
X63754189Y-43543775D01*
X63914209Y-43477735D01*
X63923605Y-43473402D01*
X64032825Y-43417522D01*
X64042709Y-43411893D01*
X64159549Y-43338233D01*
X64171418Y-43329760D01*
X64288258Y-43235780D01*
X64295077Y-43229885D01*
X64366197Y-43163845D01*
X64376546Y-43153031D01*
X64392911Y-43133778D01*
X64409648Y-43143898D01*
M02*
